<svg id="Layer_1" data-name="Layer 1" xmlns="http://www.w3.org/2000/svg" xmlns:xlink="http://www.w3.org/1999/xlink" viewBox="0 0 1920 2409.25"><defs><style>.cls-1{fill:none;}.cls-2{clip-path:url(#clip-path);}.cls-3{fill:#fff;}.cls-4{fill:#feffbf;}</style><clipPath id="clip-path"><rect class="cls-1" x="0.03" y="2.5" width="1920" height="2409.25"/></clipPath></defs><g class="cls-2"><rect class="cls-3" x="0.03" y="2.5" width="1920" height="2409.25"/><path class="cls-4" d="M-270.43,1549.12l-846.87,135.65V3377.06L418.34,2545.69,1085.44,3099,2268,2732.37V1621.65l-650.85,63.12-203.6,388.16-915.11-205.5-827.38,245.79Z"/><path class="cls-4" d="M1775.8,2300.71l412-62.67-183.9-1208.9L513.4,1715.35-532,1414.86l134.55,884.49L11.21,2489.11l644.13,159.35,805.48-224.16-271.16-366.36Z"/><path class="cls-4" d="M433.7-370.82l-527,90.14V843.81L862.31,291.38l415.14,367.69,735.91-243.64V-322.63l-405,41.95L1481.64-22.76,912.18-159.31,397.31,4Z"/></g></svg>